<svg width="28" height="25" viewBox="0 0 28 25" fill="none" xmlns="http://www.w3.org/2000/svg">
<path d="M0.5 12.5C0.5 10.3935 0.500342 8.84174 0.594548 7.61288C0.688347 6.38932 0.873037 5.5271 1.22008 4.79334C1.96196 3.22477 3.22477 1.96196 4.79334 1.22008C5.5271 0.873037 6.38932 0.688347 7.61288 0.594548C8.84174 0.500342 10.3935 0.5 12.5 0.5H15.5C17.6065 0.5 19.1583 0.500342 20.3871 0.594548C21.6107 0.688347 22.4729 0.873037 23.2067 1.22008C24.7752 1.96196 26.038 3.22477 26.7799 4.79334C27.127 5.5271 27.3117 6.38932 27.4055 7.61288C27.4997 8.84174 27.5 10.3935 27.5 12.5C27.5 14.6065 27.4997 16.1583 27.4055 17.3871C27.3117 18.6107 27.127 19.4729 26.7799 20.2067C26.038 21.7752 24.7752 23.038 23.2067 23.7799C22.4729 24.127 21.6107 24.3117 20.3871 24.4055C19.1583 24.4997 17.6065 24.5 15.5 24.5H12.5C10.3935 24.5 8.84174 24.4997 7.61288 24.4055C6.38932 24.3117 5.5271 24.127 4.79334 23.7799C3.22477 23.038 1.96196 21.7752 1.22008 20.2067C0.873037 19.4729 0.688347 18.6107 0.594548 17.3871C0.500342 16.1583 0.5 14.6065 0.5 12.5Z" fill="#A8CEFC" fill-opacity="0.3" stroke="#4C95FF"/>
<path d="M19.4226 12.6531C19.4226 12.8588 19.3342 13.0577 19.169 13.2017C19.0077 13.3492 18.7849 13.4315 18.5544 13.4315H15.0814V16.5313C15.0814 16.737 14.9892 16.9359 14.8241 17.0799C14.6627 17.2239 14.4437 17.3062 14.2132 17.3062C13.9827 17.3062 13.7599 17.2239 13.5985 17.0799C13.4333 16.9359 13.3411 16.737 13.3411 16.5313V13.4315H9.86823C9.63773 13.4315 9.41491 13.3492 9.25355 13.2017C9.0922 13.0577 9 12.8588 9 12.6531C9 12.4474 9.0922 12.2519 9.25355 12.1045C9.41491 11.9605 9.63773 11.8782 9.86823 11.8782H13.3411V8.77837C13.3411 8.57264 13.4333 8.37376 13.5985 8.22974C13.7599 8.0823 13.9827 8 14.2132 8C14.4437 8 14.6627 8.0823 14.8241 8.22974C14.9892 8.37376 15.0814 8.57264 15.0814 8.77837V11.8782H18.5544C18.7849 11.8782 19.0077 11.9605 19.169 12.1045C19.3342 12.2519 19.4226 12.4474 19.4226 12.6531Z" fill="#4C95FF"/>
</svg>
