<svg width="20" height="20" viewBox="0 0 20 20" fill="none" xmlns="http://www.w3.org/2000/svg">
<path d="M2.29175 2.70825L4.02508 3.00825L4.82758 12.5691C4.89175 13.3499 5.54425 13.9491 6.32758 13.9466H15.4184C16.1659 13.9483 16.8001 13.3983 16.9059 12.6583L17.6967 7.19325C17.7851 6.58242 17.3609 6.01575 16.7509 5.92742C16.6976 5.91992 4.30341 5.91575 4.30341 5.91575" stroke="#2D2D2D" stroke-width="1.5" stroke-linecap="round" stroke-linejoin="round"/>
<path d="M11.7709 8.99565H14.0817" stroke="#2D2D2D" stroke-width="1.5" stroke-linecap="round" stroke-linejoin="round"/>
<path fill-rule="evenodd" clip-rule="evenodd" d="M5.962 16.8354C6.21283 16.8354 6.41533 17.0387 6.41533 17.2887C6.41533 17.5396 6.21283 17.7429 5.962 17.7429C5.71117 17.7429 5.50867 17.5396 5.50867 17.2887C5.50867 17.0387 5.71117 16.8354 5.962 16.8354Z" fill="#2D2D2D" stroke="#2D2D2D" stroke-width="1.5" stroke-linecap="round" stroke-linejoin="round"/>
<path fill-rule="evenodd" clip-rule="evenodd" d="M15.3623 16.8354C15.6131 16.8354 15.8164 17.0387 15.8164 17.2887C15.8164 17.5396 15.6131 17.7429 15.3623 17.7429C15.1114 17.7429 14.9089 17.5396 14.9089 17.2887C14.9089 17.0387 15.1114 16.8354 15.3623 16.8354Z" fill="#2D2D2D" stroke="#2D2D2D" stroke-width="1.5" stroke-linecap="round" stroke-linejoin="round"/>
</svg>
