<svg width="18" height="16" viewBox="0 0 18 16" fill="none" xmlns="http://www.w3.org/2000/svg">
<path fill-rule="evenodd" clip-rule="evenodd" d="M7.16935 10.7104C7.68975 11.0632 8.32398 11.2765 8.99886 11.2765C10.7877 11.2765 12.2432 9.80797 12.2432 8.00304C12.2432 7.32208 12.0318 6.68215 11.6821 6.15708L10.7958 7.05134C10.9422 7.33029 11.0235 7.65846 11.0235 8.00304C11.0235 9.12702 10.1128 10.0459 8.99886 10.0459C8.65735 10.0459 8.33211 9.96385 8.05565 9.81617L7.16935 10.7104ZM14.3573 3.45789C15.5363 4.54085 16.5364 6.0012 17.2845 7.75691C17.3496 7.91279 17.3496 8.09328 17.2845 8.24096C15.5444 12.3267 12.4465 14.7715 8.99886 14.7715H8.99073C7.42142 14.7715 5.91716 14.2547 4.59178 13.3112L3.01433 14.9028C2.89237 15.0259 2.73787 15.0833 2.58338 15.0833C2.42889 15.0833 2.26627 15.0259 2.15243 14.9028C1.94915 14.6977 1.91663 14.3695 2.07925 14.1316L2.10364 14.0988L14.1296 1.96472C14.1459 1.94831 14.1621 1.9319 14.1703 1.91549L14.1703 1.91549C14.1865 1.89908 14.2028 1.88267 14.2109 1.86627L14.9753 1.09507C15.2192 0.857145 15.6014 0.857145 15.8372 1.09507C16.0811 1.33299 16.0811 1.72679 15.8372 1.96472L14.3573 3.45789ZM5.7486 8.00624C5.7486 8.21955 5.77299 8.43286 5.80551 8.62976L2.79699 11.6653C1.98387 10.7136 1.27646 9.56504 0.715413 8.24416C0.650364 8.09648 0.650364 7.91599 0.715413 7.76011C2.45548 3.6744 5.55345 1.23774 8.99293 1.23774H9.00106C10.1638 1.23774 11.294 1.51668 12.3348 2.04176L9.61902 4.78197C9.42388 4.74915 9.21247 4.72454 9.00106 4.72454C7.20407 4.72454 5.7486 6.1931 5.7486 8.00624Z" fill="#666666"/>
</svg>
