<svg width="16" height="18" viewBox="0 0 16 18" fill="none" xmlns="http://www.w3.org/2000/svg">
<path fill-rule="evenodd" clip-rule="evenodd" d="M12.6022 5.1633V6.44108C14.0375 6.88909 15.0833 8.18841 15.0833 9.7403V13.8544C15.0833 15.7756 13.4905 17.3333 11.5268 17.3333H4.47396C2.50942 17.3333 0.916626 15.7756 0.916626 13.8544V9.7403C0.916626 8.18841 1.96325 6.88909 3.3977 6.44108V5.1633C3.40617 2.67895 5.46385 0.666626 7.98726 0.666626C10.5445 0.666626 12.6022 2.67895 12.6022 5.1633ZM8.00419 2.11583C9.72316 2.11583 11.1204 3.48222 11.1204 5.1633V6.26138H4.87957V5.14673C4.88803 3.47394 6.28522 2.11583 8.00419 2.11583ZM8.74089 12.7124C8.74089 13.1182 8.41065 13.4411 7.99573 13.4411C7.58927 13.4411 7.25902 13.1182 7.25902 12.7124V10.874C7.25902 10.4765 7.58927 10.1535 7.99573 10.1535C8.41065 10.1535 8.74089 10.4765 8.74089 10.874V12.7124Z" fill="#666666"/>
</svg>
